<svg xmlns="http://www.w3.org/2000/svg" viewBox="0 0 171.9 271.15"><defs><style>.cls-1{fill:#74bf4b;}.cls-2{fill:#1e4471;}.cls-3{fill:#e3241b;}</style></defs><g id="Layer_2" data-name="Layer 2"><g id="Layer_1-2" data-name="Layer 1"><path class="cls-1" d="M46.06,98.92H35.6V11L13.13,23.32V12.44L35.74,0H46.06Z"/><path class="cls-2" d="M108.21,97.56H94.93q2.19-15.47,14.29-24.2,10.59-7.9,25.71-7.9,17.15,0,27.56,10.08,9.4,8.91,9.41,22.69A40.1,40.1,0,0,1,165,120.75q-5.38,8.56-19.49,22.18L113.75,174h57.82v11.6H97V174l41.17-40.67q12.1-11.92,16.56-19.24a29.74,29.74,0,0,0,4.45-15.71q0-10.94-7.39-17-6.56-5.37-17.15-5.38Q123,76,115.77,82.6A23.25,23.25,0,0,0,108.21,97.56Z"/><path class="cls-3" d="M52.3,271.15q-23.26,0-37.36-11.74Q2.78,249.38,0,232.72H16.86q2.78,13,12.81,19.43,9,5.76,22.42,5.76,17.49,0,27.32-9.6,8.32-8.12,8.33-21.14,0-16-11.1-24.33-8.55-6.41-21.14-6.41H41.63V182.56H54.86q12.81,0,20.71-7.9Q83,167.19,83,155.45,83,142,72.58,134.74,64,129,51.45,129q-14.73,0-23.91,7.26a27.3,27.3,0,0,0-9.82,16.86H1.07q3-18.57,18.57-28.6,13.44-9,32.66-9,21.35,0,34.58,11.1,12.38,10.45,12.38,27.54,0,13.67-8.32,23.05a37.76,37.76,0,0,1-19.21,11.53q14.94,2.56,23.9,13.45Q104,212.45,104,227.39q0,21.13-16,33.3Q73.87,271.15,52.3,271.15Z"/></g></g></svg>