<svg xmlns="http://www.w3.org/2000/svg" viewBox="0 0 88.93 128.85"><defs><style>.cls-1{fill:#fff;}.cls-2{fill:#1e4471;}.cls-2,.cls-3{fill-rule:evenodd;}.cls-3{fill:#00bceb;}</style></defs><g id="Layer_2" data-name="Layer 2"><g id="Layer_1-2" data-name="Layer 1"><path class="cls-1" d="M11.47,128.11H7.82V97.5L0,101.78V98l7.87-4.33h3.6Z"/><path class="cls-1" d="M32.83,128.85a10.14,10.14,0,0,1-9-5q-3-4.66-3.05-13,0-9.65,3.94-14.27a10.15,10.15,0,0,1,8.12-3.65,10.19,10.19,0,0,1,9,4.83q3.06,4.62,3.06,13.09,0,9.54-3.89,14.22A10.14,10.14,0,0,1,32.83,128.85Zm0-3.11q8.31,0,8.32-14.9T32.83,96q-8.31,0-8.32,14.82T32.83,125.74Z"/><path class="cls-1" d="M68.56,101.24a7.87,7.87,0,0,1-2.8,6.5,8.28,8.28,0,0,1-5.42,1.82,8,8,0,0,1-6-2.37,8.24,8.24,0,0,1-2.16-6,7.87,7.87,0,0,1,2.8-6.5,8.8,8.8,0,0,1,11.37.55A8.16,8.16,0,0,1,68.56,101.24Zm-13.24,0A5.66,5.66,0,0,0,57,105.72a5,5,0,0,0,3.34,1.13,4.84,4.84,0,0,0,3.74-1.48,5.81,5.81,0,0,0,1.38-4.13,5.58,5.58,0,0,0-1.72-4.48,5.09,5.09,0,0,0-3.4-1.13,4.71,4.71,0,0,0-3.69,1.48A6,6,0,0,0,55.32,101.24ZM81,93.66,63.44,128.11H59.8L77.37,93.66Zm7.92,26.87a7.84,7.84,0,0,1-2.8,6.49,8.23,8.23,0,0,1-5.42,1.83,8,8,0,0,1-6-2.37,8.16,8.16,0,0,1-2.21-6,7.87,7.87,0,0,1,2.8-6.5,8.27,8.27,0,0,1,5.41-1.82,8.06,8.06,0,0,1,6,2.36A8.19,8.19,0,0,1,88.93,120.53Zm-13.23,0A5.66,5.66,0,0,0,77.37,125a5,5,0,0,0,3.34,1.13,4.83,4.83,0,0,0,3.74-1.48,5.81,5.81,0,0,0,1.38-4.13,5.58,5.58,0,0,0-1.72-4.48,5.09,5.09,0,0,0-3.4-1.13A4.71,4.71,0,0,0,77,116.4,6,6,0,0,0,75.7,120.53Z"/><polygon class="cls-2" points="72.81 78.89 58.44 74.19 48.95 86.09 40.04 56.19 63.82 48.99 72.81 78.89"/><polygon class="cls-2" points="16.17 78.89 30.55 74.19 40.04 86.09 48.95 56.19 25.16 48.99 16.17 78.89"/><path class="cls-3" d="M80.23,34.72,68,27.62,71.65,14a3.07,3.07,0,0,0-2.15-3.78,3,3,0,0,0-1.63,0L54.21,13.85l-7-12.25a2.93,2.93,0,0,0-4-1.27A2.89,2.89,0,0,0,42,1.6l-7.1,12.25L21.18,10.18a3.2,3.2,0,0,0-3,.78,3.13,3.13,0,0,0-.78,3l3.67,13.66L8.82,34.72a3.07,3.07,0,0,0-1,4.22,3.23,3.23,0,0,0,1,1L21.08,47.1,17.41,60.77a2.9,2.9,0,0,0,.78,2.9,3.21,3.21,0,0,0,2.19,1,2.44,2.44,0,0,0,.8-.17l13.67-3.58L42,73.13a2.87,2.87,0,0,0,5,0l7.1-12.26,13.67,3.58a2.44,2.44,0,0,0,.8.17,3.21,3.21,0,0,0,2.19-1,2.94,2.94,0,0,0,.78-2.9L67.85,47.1,80.11,40a3.08,3.08,0,0,0,0-5.26Z"/><path class="cls-1" d="M26.29,37.29a18.23,18.23,0,1,1,18.25,18.2h0A18.23,18.23,0,0,1,26.29,37.29Z"/><path class="cls-2" d="M44.52,19.09A18.2,18.2,0,1,0,62.74,37.34,18.2,18.2,0,0,0,44.52,19.09Zm0,3.7A14.55,14.55,0,1,1,30,37.34,14.54,14.54,0,0,1,44.52,22.79h0"/></g></g></svg>