<svg xmlns="http://www.w3.org/2000/svg" viewBox="0 0 134.02 134.02"><defs><style>.cls-1{fill:none;stroke:#00bceb;stroke-linecap:round;stroke-miterlimit:10;stroke-width:8px;}.cls-2{fill:#fff;}</style></defs><g id="Layer_2" data-name="Layer 2"><g id="Layer_1-2" data-name="Layer 1"><circle class="cls-1" cx="67.01" cy="67.01" r="63.01"/><path class="cls-2" d="M45.62,84.08h-3.5V54.68l-7.51,4.11V55.16L42.17,51h3.45Z"/><path class="cls-2" d="M64.24,84.79A9.73,9.73,0,0,1,55.59,80q-2.93-4.5-2.93-12.53,0-9.25,3.78-13.7a9.73,9.73,0,0,1,7.8-3.5,9.79,9.79,0,0,1,8.65,4.63q2.92,4.44,2.93,12.57,0,9.17-3.74,13.66A9.7,9.7,0,0,1,64.24,84.79Zm0-3q8,0,8-14.32t-8-14.22q-8,0-8,14.22T64.24,81.81Z"/><path class="cls-2" d="M100.91,59.5,92.55,71l9.78,13H98l-7.51-10.3-7.33,10.3H79.08l9.36-12.81L79.6,59.5h4.25l6.71,9,6.34-9Z"/></g></g></svg>