<svg xmlns="http://www.w3.org/2000/svg" viewBox="0 0 88.75 122.48"><defs><style>.cls-1{fill:#fff;}.cls-2{fill:#74bf4b;}</style></defs><g id="Layer_2" data-name="Layer 2"><g id="Layer_1-2" data-name="Layer 1"><path class="cls-1" d="M11.71,121.72H8V90.48L0,94.85V91l8-4.42h3.67Z"/><path class="cls-1" d="M32.28,122.43a13.24,13.24,0,0,1-8.79-2.77A10,10,0,0,1,20,113.38h4A6.86,6.86,0,0,0,27,118a9.57,9.57,0,0,0,5.27,1.35,8.78,8.78,0,0,0,6.43-2.26,6.61,6.61,0,0,0,2-5A6.73,6.73,0,0,0,38,106.35a8.09,8.09,0,0,0-5-1.51H29.77v-3.26h3.12a6.6,6.6,0,0,0,4.87-1.86,6.13,6.13,0,0,0,1.76-4.52,5.58,5.58,0,0,0-2.47-4.88,8.68,8.68,0,0,0-5-1.35,8.81,8.81,0,0,0-5.63,1.71,6.48,6.48,0,0,0-2.31,4H20.22a9.46,9.46,0,0,1,4.38-6.74,13.58,13.58,0,0,1,7.68-2.11,12.21,12.21,0,0,1,8.14,2.62,8.07,8.07,0,0,1,2.91,6.48,7.89,7.89,0,0,1-1.95,5.42A8.83,8.83,0,0,1,36.85,103a8.8,8.8,0,0,1,7.59,9.1A9.33,9.33,0,0,1,40.67,120,13.71,13.71,0,0,1,32.28,122.43Z"/><path class="cls-1" d="M66.84,94.29A8,8,0,0,1,64,100.92a8.42,8.42,0,0,1-5.53,1.86,8.2,8.2,0,0,1-6.13-2.41,8.43,8.43,0,0,1-2.21-6.08A8,8,0,0,1,53,87.66a9,9,0,0,1,11.6.55A8.33,8.33,0,0,1,66.84,94.29Zm-13.51,0A5.79,5.79,0,0,0,55,98.87,5.06,5.06,0,0,0,58.45,100a5,5,0,0,0,3.82-1.51,5.93,5.93,0,0,0,1.41-4.22,5.71,5.71,0,0,0-1.76-4.57,5.17,5.17,0,0,0-3.47-1.15,4.83,4.83,0,0,0-3.77,1.5A6.13,6.13,0,0,0,53.33,94.29Zm26.22-7.73L61.62,121.72H57.9L75.83,86.56ZM87.64,114a8,8,0,0,1-2.86,6.63,8.42,8.42,0,0,1-5.53,1.86A8,8,0,0,1,70.86,114a8,8,0,0,1,2.86-6.63,8.42,8.42,0,0,1,5.53-1.86,8.2,8.2,0,0,1,6.13,2.41A8.31,8.31,0,0,1,87.64,114Zm-13.51,0a5.81,5.81,0,0,0,1.7,4.57,5.11,5.11,0,0,0,3.42,1.15,5,5,0,0,0,3.82-1.5A6,6,0,0,0,84.48,114a5.68,5.68,0,0,0-1.76-4.57,5.18,5.18,0,0,0-3.47-1.16,4.8,4.8,0,0,0-3.77,1.51A6.1,6.1,0,0,0,74.13,114Z"/><path class="cls-2" d="M26.84,9.45h5.89a3,3,0,0,1,3,3.05V25.28a3,3,0,0,1-3,3H26.84a3,3,0,0,1-3.05-3V12.5A3.06,3.06,0,0,1,26.84,9.45ZM29.78,0a3.6,3.6,0,1,1-3.6,3.6A3.6,3.6,0,0,1,29.78,0Zm6.93,15h8.67a4.51,4.51,0,0,1,4.51,4.5V38.37a4.5,4.5,0,0,1-4.51,4.5H36.71a4.49,4.49,0,0,1-4.5-4.5V19.51A4.5,4.5,0,0,1,36.71,15Zm4.34-14a5.32,5.32,0,1,1-5.32,5.32A5.32,5.32,0,0,1,41.05,1.05Zm9.31,20.17h10.9a5.67,5.67,0,0,1,5.67,5.67V50.61a5.66,5.66,0,0,1-5.67,5.66H50.36a5.66,5.66,0,0,1-5.67-5.66V26.89A5.67,5.67,0,0,1,50.36,21.22ZM55.8,3.65a6.7,6.7,0,1,1-6.69,6.69A6.7,6.7,0,0,1,55.8,3.65ZM67.72,31.39H81.55a7.19,7.19,0,0,1,7.2,7.19v30.1a7.2,7.2,0,0,1-7.2,7.2H67.72a7.19,7.19,0,0,1-7.19-7.2V38.58A7.19,7.19,0,0,1,67.72,31.39Zm6.91-22.3a8.5,8.5,0,1,1-8.5,8.49A8.49,8.49,0,0,1,74.63,9.09ZM5.9,39.46a2.47,2.47,0,0,0,3.49-.2l2.42-2.41v33.9a2.47,2.47,0,1,0,4.94,0V36.84l2.42,2.42a1.8,1.8,0,0,0,.19.2,2.48,2.48,0,0,0,3.3-3.69L16,29.13a2.44,2.44,0,0,0-1.75-.73h0a2.83,2.83,0,0,0-.5.05l-.13,0-.32.1h0a2.57,2.57,0,0,0-.85.6L5.9,35.77c-.07.06-.13.13-.19.19A2.47,2.47,0,0,0,5.9,39.46Z"/></g></g></svg>