<svg xmlns="http://www.w3.org/2000/svg" viewBox="0 0 129 129"><defs><style>.cls-1{fill:#00bceb;}.cls-2{fill:#fff;}.cls-3{fill:#1e4471;}</style></defs><g id="Layer_2" data-name="Layer 2"><g id="Layer_1-2" data-name="Layer 1"><path class="cls-1" d="M129,64.47A64.5,64.5,0,1,1,64.47,0h.06A64.49,64.49,0,0,1,129,64.47"/><path class="cls-2" d="M101.78,102.35a59.52,59.52,0,0,1-5.87,5.24A55.48,55.48,0,0,1,89.32,112a53.26,53.26,0,0,1-7.18,3.36,52,52,0,0,1-7.64,2.27,54.49,54.49,0,0,1-31.57-2.43A55.57,55.57,0,0,1,7.7,64.45a56.38,56.38,0,0,1,8.92-31.6A57.48,57.48,0,0,1,75.28,7.33a60.87,60.87,0,0,1,8.33,2.12A59.46,59.46,0,0,1,98.92,17.3a64.27,64.27,0,0,1,6.68,5.53L98,30.42A48.53,48.53,0,0,0,73.45,16.57,49.3,49.3,0,0,0,45,18.74,50,50,0,0,0,22.2,36.6a50.72,50.72,0,0,0-9.14,27.87,51.43,51.43,0,0,0,8,28.64,52.15,52.15,0,0,0,53.17,23.22,53.3,53.3,0,0,0,7.56-1.91,54.71,54.71,0,0,0,7.2-3,56.7,56.7,0,0,0,6.73-4.06,60.12,60.12,0,0,0,6-5"/><path class="cls-3" d="M56.25,72.14h0a9,9,0,0,1,0-12.74l55-42.28-42.31,55a9,9,0,0,1-12.74,0"/></g></g></svg>