<svg xmlns="http://www.w3.org/2000/svg" viewBox="0 0 267.34 93.57"><defs><style>.cls-1{fill:#fff;}.cls-2{fill:#f9f8ef;}.cls-3{fill:#835353;}.cls-4{fill:#e3241b;}</style></defs><g id="Layer_2" data-name="Layer 2"><g id="Layer_1-2" data-name="Layer 1"><path class="cls-1" d="M13.71,67.29q-6.1,0-9.79-3.08a11.09,11.09,0,0,1-3.92-7H4.42a7.6,7.6,0,0,0,3.36,5.1,10.69,10.69,0,0,0,5.87,1.51,9.78,9.78,0,0,0,7.16-2.52A7.37,7.37,0,0,0,23,55.76a7.48,7.48,0,0,0-2.91-6.38,8.93,8.93,0,0,0-5.53-1.67H10.91V44.07h3.47A7.3,7.3,0,0,0,19.8,42a6.8,6.8,0,0,0,2-5A6.19,6.19,0,0,0,19,31.54,9.66,9.66,0,0,0,13.48,30a9.77,9.77,0,0,0-6.26,1.9,7.13,7.13,0,0,0-2.57,4.42H.28a10.55,10.55,0,0,1,4.87-7.5,15.13,15.13,0,0,1,8.56-2.35,13.61,13.61,0,0,1,9.06,2.91A9,9,0,0,1,26,36.63a8.74,8.74,0,0,1-2.18,6,9.83,9.83,0,0,1-5,3,10,10,0,0,1,6.26,3.53,10.08,10.08,0,0,1,2.19,6.6,10.34,10.34,0,0,1-4.2,8.72A15.24,15.24,0,0,1,13.71,67.29Z"/><path class="cls-1" d="M47.55,67.34a11.52,11.52,0,0,1-10.24-5.65q-3.47-5.31-3.47-14.82,0-11,4.48-16.23a11.54,11.54,0,0,1,9.23-4.14A11.61,11.61,0,0,1,57.79,32q3.47,5.25,3.47,14.88,0,10.85-4.42,16.16A11.53,11.53,0,0,1,47.55,67.34Zm0-3.52q9.45,0,9.45-17T47.55,30Q38.1,30,38.1,46.87T47.55,63.82Z"/><path class="cls-1" d="M206.42,66.5h-4.37L188.52,32.6V66.5h-4.26V26.22h6.21l13.88,35.3,13-35.3h5.93V66.5h-4.14V32.88Z"/><path class="cls-1" d="M236.18,31.43h-4.76V26.22h4.76ZM235.9,66.5h-4.2V37.41h4.2Z"/><path class="cls-1" d="M248.15,66.5H244V37.41h3.41l.5,4.36a10.51,10.51,0,0,1,3.89-3.83,10.76,10.76,0,0,1,5.35-1.37,9.81,9.81,0,0,1,7.77,3.13,10.83,10.83,0,0,1,2.41,7.39V66.5H263.2V47.2a7.08,7.08,0,0,0-2.07-5.54,7.27,7.27,0,0,0-4.93-1.56,7.69,7.69,0,0,0-5.87,2.52,8.3,8.3,0,0,0-2.18,5.87Z"/><circle class="cls-2" cx="121.56" cy="46.78" r="42.31" transform="translate(21.25 129.87) rotate(-60.69)"/><rect class="cls-3" x="120.78" y="12.51" width="1.32" height="6.46" transform="translate(-0.22 1.82) rotate(-0.86)"/><rect class="cls-3" x="121.7" y="74.79" width="1.32" height="6.46" transform="translate(-1.14 1.82) rotate(-0.85)"/><rect class="cls-3" x="149.81" y="45.76" width="6.46" height="1.32" transform="translate(-0.67 2.27) rotate(-0.85)"/><rect class="cls-3" x="87.53" y="46.69" width="6.46" height="1.32" transform="translate(-0.69 1.35) rotate(-0.85)"/><rect class="cls-3" x="94.14" y="28.11" width="1.32" height="6.46" transform="translate(21.25 98.87) rotate(-60.85)"/><rect class="cls-3" x="148.54" y="58.45" width="1.32" height="6.46" transform="translate(22.65 161.94) rotate(-60.85)"/><rect class="cls-3" x="133.93" y="18.66" width="6.46" height="1.32" transform="translate(53.49 129.7) rotate(-60.85)"/><rect class="cls-3" x="103.59" y="73.06" width="6.46" height="1.32" transform="translate(-9.59 131.09) rotate(-60.84)"/><rect class="cls-3" x="91.75" y="61.56" width="6.46" height="1.32" transform="translate(-18.47 57.5) rotate(-30.85)"/><rect class="cls-3" x="145.23" y="29.62" width="6.46" height="1.32" transform="translate(5.48 80.4) rotate(-30.85)"/><rect class="cls-3" x="105.09" y="16.28" width="1.32" height="6.46" transform="translate(4.96 56.99) rotate(-30.85)"/><rect class="cls-3" x="137.03" y="69.76" width="1.32" height="6.46" transform="translate(-17.95 80.93) rotate(-30.85)"/><path class="cls-3" d="M121.56,69.74h0a1.26,1.26,0,0,1-1.26-1.26V47.83h2.51V68.48A1.26,1.26,0,0,1,121.56,69.74Z"/><path class="cls-4" d="M153.39,12.54l0,0L152,11.28A46.75,46.75,0,0,0,87.6,78.91l0,0,1.25,1.24h0l1.35,1.32,0,0a46.75,46.75,0,0,0,63.18-68.93ZM121.56,84.61a37.82,37.82,0,1,1,37.83-37.83A37.59,37.59,0,0,1,121.56,84.61Z"/><circle class="cls-3" cx="121.56" cy="46.78" r="3.48"/></g></g></svg>