<svg xmlns="http://www.w3.org/2000/svg" viewBox="0 0 169.96 271.83"><defs><style>.cls-1{fill:#00bceb;}.cls-2{fill:#0d274d;}.cls-3{fill:#fbab2c;}</style></defs><g id="Layer_2" data-name="Layer 2"><g id="Layer_1-2" data-name="Layer 1"><path class="cls-1" d="M114.64,0h9.74V62.15h13.56v7.9H124.38V86.33h-9V70.05H76.65V61.29Zm-28,62.15h28.74V14.68Z"/><path class="cls-2" d="M36.68,181.14q-15.67,0-26-9A31,31,0,0,1,0,153.59H11.87a21.49,21.49,0,0,0,9.29,13.7,28.09,28.09,0,0,0,15.67,4.26q12,0,19.18-8.22,6.54-7.46,6.55-19.17,0-13.09-7.92-20.1-6.54-5.93-17.2-5.93A30.85,30.85,0,0,0,13.7,129.24H3.81L6.09,72.32H69.25V81.9H16.44L15.07,118q10-9,24.81-9,16,0,25.57,10.35,8.82,9.59,8.82,25.26,0,16.9-11.56,27.25Q52.36,181.15,36.68,181.14Z"/><path class="cls-3" d="M166.34,146.63H149.06a23.23,23.23,0,0,0-9.38-12.9q-6.83-4.59-16.64-4.59-36,0-38.18,64.2a43.27,43.27,0,0,1,17.71-17.28,44.35,44.35,0,0,1,20.47-4.9q22.61,0,35.62,15.57Q170,200.17,170,221.07q0,25.38-16.84,39.45-13.44,11.31-32.21,11.31-27.94,0-40.95-22-10.67-18.12-10.67-49.69,0-48.84,18.77-69.54,13.23-14.49,35.2-14.5,17.05,0,29.22,9.39A36.85,36.85,0,0,1,166.34,146.63Zm-45.86,38q-16.22,0-25.38,11.3Q87,205.29,87,219.79q0,17.28,9.59,28.15,9.39,10.45,24.53,10.45,14.72,0,24.1-10.66,8.75-10,8.75-25.6,0-18.76-10.45-28.79Q134.57,184.59,120.48,184.6Z"/></g></g></svg>