<svg xmlns="http://www.w3.org/2000/svg" viewBox="0 0 80.02 80.12"><defs><style>.cls-1,.cls-6{fill:#0a5275;}.cls-1,.cls-2{fill-rule:evenodd;}.cls-2,.cls-3{fill:#11bdeb;}.cls-4,.cls-7{fill:#3a3a3b;}.cls-5{fill:#e6e6e6;}.cls-7{opacity:0.2;}</style></defs><title>Asset 6</title><g id="Layer_2" data-name="Layer 2"><g id="Layer_1-2" data-name="Layer 1"><path class="cls-1" d="M2.26,71H8.64a22.11,22.11,0,0,1,.65-4.47,3.63,3.63,0,0,1,3.18-2.79l4.21-.58.3-.11c1.68-1.09,3.78-2.74,5.66-3.25,4.25-1.17,13.78-1.29,17.72.77l.7,7.41,13.21,1.42V28.83a2.17,2.17,0,0,0-2.17-2.17H34.87v-2.8H44V1.53A1.53,1.53,0,0,0,42.49,0H17.31a1.52,1.52,0,0,0-1.53,1.53V11.81h16.3V54.49H28.69V15.17H1.83A1.83,1.83,0,0,0,0,17V68.76A2.26,2.26,0,0,0,2.26,71Z"/><polygon class="cls-2" points="37.14 38.23 42.55 38.23 42.55 43.65 37.14 43.65 37.14 38.23 37.14 38.23"/><polygon class="cls-2" points="45.09 30.65 50.5 30.65 50.5 36.06 45.09 36.06 45.09 30.65 45.09 30.65"/><polygon class="cls-2" points="37.14 30.65 42.55 30.65 42.55 36.06 37.14 36.06 37.14 30.65 37.14 30.65"/><path class="cls-3" d="M58,66.3a5.93,5.93,0,0,0-4.79-3.57l-8.34-1-4.45-7.23a6.27,6.27,0,0,0-5.33-3H20.75a8.31,8.31,0,0,0-8,6.11l-.12.41a6.8,6.8,0,0,1-4.7,4.73,2.88,2.88,0,0,0-2.09,2.76v8l4.55-1.06a4.9,4.9,0,0,1,.32-.65,6.35,6.35,0,0,1,11,0,6.59,6.59,0,0,1,.33.65H41.33a5.59,5.59,0,0,1,.32-.65,6.36,6.36,0,0,1,11,0,4.9,4.9,0,0,1,.32.65h5.1l.37-3.24,0-.4A6,6,0,0,0,58,66.3Z"/><path class="cls-4" d="M52.22,75.06c0,.11,0,.22,0,.33a5.06,5.06,0,0,1-10.09,0c0-.11,0-.22,0-.33a5,5,0,0,1,.67-2.52,5.06,5.06,0,0,1,8.77,0A5,5,0,0,1,52.22,75.06Zm-3,0a2.08,2.08,0,1,0-2.07,2.07A2.07,2.07,0,0,0,49.24,75.06Z"/><path class="cls-5" d="M47.17,73a2.07,2.07,0,1,1-2.08,2.07A2.07,2.07,0,0,1,47.17,73Z"/><path class="cls-6" d="M18.57,54.87v6.9h-4s.46-1.87.75-2.93l.11-.41a5.25,5.25,0,0,1,.22-.63A5.49,5.49,0,0,1,18.57,54.87Z"/><path class="cls-6" d="M28.52,54.42v7.35H20.35V54.43h8.17Z"/><path class="cls-6" d="M41.54,61.77H30.29V54.42h4.83A3.41,3.41,0,0,1,38,56Z"/><path class="cls-4" d="M21.25,75.39a5.06,5.06,0,0,1-10.09,0c0-.11,0-.22,0-.33a5,5,0,0,1,.67-2.52,5.06,5.06,0,0,1,8.77,0,5,5,0,0,1,.67,2.52C21.26,75.17,21.26,75.28,21.25,75.39Zm-3-.33a2.08,2.08,0,1,0-2.08,2.07A2.08,2.08,0,0,0,18.28,75.06Z"/><path class="cls-5" d="M16.2,73a2.07,2.07,0,1,1-2.07,2.07A2.08,2.08,0,0,1,16.2,73Z"/><path class="cls-6" d="M35.17,65.67H33.3a.71.71,0,1,1,0-1.42h1.87a.71.71,0,0,1,0,1.42Z"/><path class="cls-6" d="M22.37,65.67H20.5a.71.71,0,0,1,0-1.42h1.87a.71.71,0,1,1,0,1.42Z"/><path class="cls-6" d="M58.5,68.9H57.07a2.6,2.6,0,0,1-2.6-2.6H58A4.85,4.85,0,0,1,58.5,68.9Z"/><polygon class="cls-7" points="28.52 54.43 28.52 61.77 27.69 61.77 20.35 54.43 28.52 54.43"/><path class="cls-7" d="M41.54,61.77H37.65l-7.36-7.35h4.83A3.41,3.41,0,0,1,38,56Z"/><path class="cls-7" d="M18.57,54.87v5.81L15.7,57.8A5.49,5.49,0,0,1,18.57,54.87Z"/><polygon class="cls-2" points="5.97 38.56 12.76 38.56 12.76 45.35 5.97 45.35 5.97 38.56 5.97 38.56"/><polygon class="cls-2" points="15.93 29.04 22.72 29.04 22.72 35.83 15.93 35.83 15.93 29.04 15.93 29.04"/><polygon class="cls-2" points="5.97 29.04 12.76 29.04 12.76 35.83 5.97 35.83 5.97 29.04 5.97 29.04"/><polygon class="cls-2" points="15.93 19.52 22.72 19.52 22.72 26.31 15.93 26.31 15.93 19.52 15.93 19.52"/><polygon class="cls-2" points="5.97 19.52 12.76 19.52 12.76 26.31 5.97 26.31 5.97 19.52 5.97 19.52"/><path class="cls-6" d="M58.65,19.85a5.51,5.51,0,0,1-3.76-1.3,4.47,4.47,0,0,1-1.54-2.68h1.72a3.12,3.12,0,0,0,1.34,2,4.08,4.08,0,0,0,2.27.62,3.51,3.51,0,0,0,2.77-1.19,4,4,0,0,0,.94-2.77,3.7,3.7,0,0,0-1.14-2.91,3.57,3.57,0,0,0-2.49-.86,4.48,4.48,0,0,0-1.91.43,4.42,4.42,0,0,0-1.52,1.18H53.9l.33-8.23h9.13V5.51H55.73l-.2,5.21a5.2,5.2,0,0,1,3.59-1.29,4.76,4.76,0,0,1,3.69,1.49,5.19,5.19,0,0,1,1.28,3.65,5,5,0,0,1-1.67,3.94A5.42,5.42,0,0,1,58.65,19.85Z"/><path class="cls-6" d="M80,11.12v8.4H78.74l-.24-2.26a5,5,0,0,1-2.2,2,6.68,6.68,0,0,1-2.82.59,6.4,6.4,0,0,1-5.23-2.4,9,9,0,0,1-1.81-5.85A8.46,8.46,0,0,1,68.8,5.18a6.61,6.61,0,0,1,4.79-1.83,6.88,6.88,0,0,1,4.56,1.52A5.5,5.5,0,0,1,80,8.15H78.3a4,4,0,0,0-1.76-2.58,5.42,5.42,0,0,0-3-.77,4.75,4.75,0,0,0-4,1.92A7.72,7.72,0,0,0,68.2,11.6a7.18,7.18,0,0,0,1.87,5.3,4.84,4.84,0,0,0,3.59,1.5,5,5,0,0,0,3.54-1.34,3.83,3.83,0,0,0,1.25-2.91V12.53H73.57V11.12Z"/></g></g></svg>