<svg xmlns="http://www.w3.org/2000/svg" viewBox="0 0 132.03 134.04"><defs><style>.cls-1,.cls-2{fill:none;stroke-linecap:round;}.cls-1{stroke:#00bceb;stroke-linejoin:round;stroke-width:4px;}.cls-2{stroke:#fbab2c;stroke-miterlimit:10;stroke-width:8px;}.cls-3{fill:#fff;}</style></defs><g id="Layer_2" data-name="Layer 2"><g id="Layer_1-2" data-name="Layer 1"><circle class="cls-1" cx="67.02" cy="67.02" r="63.01"/><path class="cls-2" d="M67,4A63,63,0,1,0,90.91,125.34"/><path class="cls-3" d="M47.57,56.05H43.74a5.11,5.11,0,0,0-2.08-2.86,6.47,6.47,0,0,0-3.68-1q-8,0-8.46,14.22a9.57,9.57,0,0,1,3.92-3.83A9.89,9.89,0,0,1,38,61.49a9.73,9.73,0,0,1,7.89,3.45,11.41,11.41,0,0,1,2.51,7.61A10.62,10.62,0,0,1,37.51,83.8q-6.19,0-9.08-4.87-2.37-4-2.36-11,0-10.83,4.16-15.41A10,10,0,0,1,38,49.29a10.32,10.32,0,0,1,6.48,2.08A8.19,8.19,0,0,1,47.57,56.05ZM37.41,64.47A6.83,6.83,0,0,0,31.79,67,7.8,7.8,0,0,0,30,72.26a9.07,9.07,0,0,0,2.13,6.24,6.92,6.92,0,0,0,5.43,2.32,6.76,6.76,0,0,0,5.34-2.37,8.32,8.32,0,0,0,1.94-5.67,8.41,8.41,0,0,0-2.32-6.38A7,7,0,0,0,37.41,64.47Z"/><path class="cls-3" d="M75.64,53.17,61.47,83.09h-4L71.91,53.17H54.66V50h21Z"/><path class="cls-3" d="M97.38,57.28a7.54,7.54,0,0,1-2.69,6.24,7.9,7.9,0,0,1-5.2,1.75A7.71,7.71,0,0,1,83.73,63a7.92,7.92,0,0,1-2.08-5.72A7.54,7.54,0,0,1,84.34,51a7.86,7.86,0,0,1,13,6.24Zm-12.71,0a5.44,5.44,0,0,0,1.61,4.3,4.75,4.75,0,0,0,3.21,1.09,4.66,4.66,0,0,0,3.59-1.42,5.56,5.56,0,0,0,1.33-4A5.37,5.37,0,0,0,92.75,53a4.88,4.88,0,0,0-3.26-1.09A4.54,4.54,0,0,0,86,53.31,5.74,5.74,0,0,0,84.67,57.28ZM109.34,50,92.47,83.09H89L105.84,50ZM117,75.81a7.57,7.57,0,0,1-2.69,6.24,8,8,0,0,1-5.2,1.75,7.72,7.72,0,0,1-5.77-2.27,7.82,7.82,0,0,1-2.12-5.72,7.54,7.54,0,0,1,2.69-6.24,7.9,7.9,0,0,1,5.2-1.75,7.71,7.71,0,0,1,5.76,2.27A7.81,7.81,0,0,1,117,75.81Zm-12.71,0a5.45,5.45,0,0,0,1.6,4.3,4.83,4.83,0,0,0,3.22,1.09,4.69,4.69,0,0,0,3.59-1.42,5.61,5.61,0,0,0,1.32-4,5.36,5.36,0,0,0-1.65-4.3,4.83,4.83,0,0,0-3.26-1.09,4.52,4.52,0,0,0-3.55,1.42A5.72,5.72,0,0,0,104.24,75.81Z"/></g></g></svg>