<svg xmlns="http://www.w3.org/2000/svg" viewBox="0 0 134.02 134.01"><defs><style>.cls-1,.cls-3{fill:none;stroke-linecap:round;}.cls-1{stroke:#00bceb;stroke-linejoin:round;stroke-width:4px;}.cls-2{fill:#fff;}.cls-3{stroke:#74bf4b;stroke-miterlimit:10;stroke-width:8px;}</style></defs><g id="Layer_2" data-name="Layer 2"><g id="Layer_1-2" data-name="Layer 1"><circle class="cls-1" cx="67.01" cy="67" r="63.01"/><path class="cls-2" d="M47.28,53.15,33.1,83.07h-4L43.55,53.15H26.3V50h21Z"/><path class="cls-2" d="M65.15,83.78A11.91,11.91,0,0,1,57.06,81a9.57,9.57,0,0,1-3.3-5.76h3.68a6.69,6.69,0,0,0,2.88,4.25,8.76,8.76,0,0,0,4.87,1.32,7.51,7.51,0,0,0,6-2.55,8.71,8.71,0,0,0,2-6,7.89,7.89,0,0,0-2.46-6.24,7.62,7.62,0,0,0-5.34-1.85A9.64,9.64,0,0,0,58,67.66H54.94L55.65,50H75.26v3H58.86l-.42,11.2a11.1,11.1,0,0,1,7.7-2.79,10.32,10.32,0,0,1,7.94,3.21,11.13,11.13,0,0,1,2.74,7.85,10.84,10.84,0,0,1-3.59,8.46A11.68,11.68,0,0,1,65.15,83.78Z"/><path class="cls-2" d="M97.38,57.27a7.51,7.51,0,0,1-2.7,6.23,7.87,7.87,0,0,1-5.19,1.75A7.71,7.71,0,0,1,83.72,63a7.92,7.92,0,0,1-2.08-5.72A7.57,7.57,0,0,1,84.33,51a7.87,7.87,0,0,1,13,6.24Zm-12.72,0a5.45,5.45,0,0,0,1.61,4.3,4.8,4.8,0,0,0,3.22,1.08,4.68,4.68,0,0,0,3.59-1.41,5.61,5.61,0,0,0,1.32-4A5.36,5.36,0,0,0,92.75,53a4.83,4.83,0,0,0-3.26-1.09,4.51,4.51,0,0,0-3.55,1.42A5.71,5.71,0,0,0,84.66,57.27ZM109.33,50,92.46,83.07H89L105.84,50Zm7.61,25.8A7.54,7.54,0,0,1,114.25,82a7.9,7.9,0,0,1-5.2,1.75,7.71,7.71,0,0,1-5.76-2.27,7.81,7.81,0,0,1-2.13-5.72,7.57,7.57,0,0,1,2.69-6.24,8,8,0,0,1,5.2-1.74,7.73,7.73,0,0,1,5.77,2.26A7.82,7.82,0,0,1,116.94,75.79Zm-12.71,0a5.42,5.42,0,0,0,1.61,4.3,4.75,4.75,0,0,0,3.21,1.09,4.66,4.66,0,0,0,3.59-1.42,5.56,5.56,0,0,0,1.33-4,5.37,5.37,0,0,0-1.66-4.3,4.87,4.87,0,0,0-3.26-1.08,4.53,4.53,0,0,0-3.54,1.41A5.74,5.74,0,0,0,104.23,75.79Z"/><path class="cls-3" d="M130,66A63,63,0,1,1,66,4"/></g></g></svg>