<svg xmlns="http://www.w3.org/2000/svg" viewBox="0 0 247.98 79.8"><defs><style>.cls-1{fill:#fff;}.cls-2{fill:#74bf4b;}</style></defs><g id="Layer_2" data-name="Layer 2"><g id="Layer_1-2" data-name="Layer 1"><path class="cls-1" d="M116.74,25.19q0,9.93-11.73,14.77,14.05,5.37,14.06,16.83a15.72,15.72,0,0,1-7,13.43Q106,74.69,96.59,74.69q-10.74,0-17.09-5.64a15,15,0,0,1-5.38-11.72q0-12.36,13.43-16.92-11.1-4.57-11.1-14.69,0-8.5,6.9-12.89A23.84,23.84,0,0,1,96.59,9.34q9.22,0,14.78,4.3A13.86,13.86,0,0,1,116.74,25.19ZM112,56.79a11.61,11.61,0,0,0-6.26-10.74q-3.49-2.07-10.57-3.5-14,3.59-14,14.24A10.83,10.83,0,0,0,85.85,66Q90,69.14,96.59,69.14q7.62,0,11.82-3.85A11,11,0,0,0,112,56.79ZM83,25.37a10.79,10.79,0,0,0,5.64,9.93,27.1,27.1,0,0,0,9,2.87q12.53-3.86,12.53-12.8A9.6,9.6,0,0,0,105.55,17a16.41,16.41,0,0,0-9-2.33c-4.11,0-7.43,1-9.93,3A9.35,9.35,0,0,0,83,25.37Z"/><path class="cls-1" d="M150.31,74.69a18.41,18.41,0,0,1-16.38-9q-5.56-8.51-5.55-23.72,0-17.55,7.16-26a19.72,19.72,0,0,1,31.15,2.14q5.55,8.43,5.55,23.82,0,17.37-7.07,25.87A18.4,18.4,0,0,1,150.31,74.69Zm0-5.64q15.12,0,15.13-27.12,0-27-15.13-26.95t-15.13,27Q135.18,69.05,150.31,69.05Z"/><path class="cls-1" d="M210.92,24.47q0,7.7-5.11,11.82A15,15,0,0,1,196,39.6,14.61,14.61,0,0,1,185,35.3q-3.93-4.11-3.94-10.83,0-7.69,5.11-11.82a16,16,0,0,1,20.68,1A14.85,14.85,0,0,1,210.92,24.47Zm-24.09,0q0,5.46,3,8.15A9.06,9.06,0,0,0,196,34.68,8.86,8.86,0,0,0,202.77,32q2.5-2.68,2.51-7.52,0-5.46-3.14-8.15A9.21,9.21,0,0,0,196,14.26,8.57,8.57,0,0,0,189.25,17Q186.83,19.63,186.83,24.47Zm46.73-13.79-32,62.67H195l32-62.67ZM248,59.56q0,7.71-5.1,11.82A15,15,0,0,1,233,74.69a14.61,14.61,0,0,1-10.92-4.29q-4-4.12-4-10.84,0-7.7,5.1-11.81A15,15,0,0,1,233,44.43,14.64,14.64,0,0,1,244,48.73,14.86,14.86,0,0,1,248,59.56Zm-24.08,0c0,3.65,1,6.36,3,8.15A9.07,9.07,0,0,0,233,69.77a8.86,8.86,0,0,0,6.8-2.69c1.67-1.79,2.51-4.29,2.51-7.52q0-5.46-3.14-8.14A9.2,9.2,0,0,0,233,49.36,8.57,8.57,0,0,0,226.31,52C224.7,53.84,223.9,56.34,223.9,59.56Z"/><path class="cls-2" d="M57,42l-6.5,6.5-.19.24a2.49,2.49,0,0,1-1.75.72h-.05a2.73,2.73,0,0,1-.5-.05.81.81,0,0,1-.22-.07l-.25-.07-.11-.06a2.73,2.73,0,0,1-.7-.48L40,42a2.51,2.51,0,1,1,3.54-3.56L46,40.84V2.5a2.51,2.51,0,0,1,5,0V40.89l2.46-2.46A2.51,2.51,0,0,1,57,42ZM37.3,68.59a2.51,2.51,0,0,0-3.54.2l-2.45,2.45V19.75h0a2.51,2.51,0,0,0-5,0V71.24l-2.46-2.45a1.8,1.8,0,0,0-.19-.2,2.51,2.51,0,1,0-3.34,3.74L27,79.06a2.44,2.44,0,0,0,1.77.74h0a2.07,2.07,0,0,0,.5,0l.14,0,.32-.1h0a2.56,2.56,0,0,0,.85-.61l6.68-6.67.19-.2A2.5,2.5,0,0,0,37.3,68.59ZM17.63,48.19a2.51,2.51,0,0,0-3.54-.2l-2.45,2.45V37a2.51,2.51,0,1,0-5,0V50.45L4.18,48A2.51,2.51,0,0,0,.64,51.53l6.72,6.74A2.51,2.51,0,0,0,9.14,59a2.48,2.48,0,0,0,1-.2l.05,0a2.64,2.64,0,0,0,.37-.2,2.18,2.18,0,0,0,.4-.34l6.7-6.7A2.48,2.48,0,0,0,17.63,48.19Z"/></g></g></svg>