<svg xmlns="http://www.w3.org/2000/svg" viewBox="0 0 173.85 131.64"><defs><style>.cls-1{fill:#fbab2c;}.cls-2{fill:#fff;}</style></defs><g id="Layer_2" data-name="Layer 2"><g id="Layer_1-2" data-name="Layer 1"><path class="cls-1" d="M153.62,46.66V29.52a4.68,4.68,0,1,0-9.35,0V36L109.65,1.35a5.35,5.35,0,0,0-7.12,0L99.32,4.6h0l-34,34L31.42,4.66h0L28.15,1.39A4.67,4.67,0,0,0,21.54,8l3.21,3.21h0L60.68,47.14a5.27,5.27,0,0,0,8.26,1.65A4.8,4.8,0,0,0,70,47.14l35.86-35.87h0l.25-.25,31.5,31.49h-6.33a4.68,4.68,0,0,0,0,9.35l17.66.09a4.83,4.83,0,0,0,1.55-.29l.22-.07c.14-.06.28-.15.42-.22s.27-.13.39-.21a4.52,4.52,0,0,0,.72-.59l.07-.07a4.69,4.69,0,0,0,1.35-3.26A5.51,5.51,0,0,0,153.62,46.66Z"/><path class="cls-2" d="M42.65,82q0,9.95-11.74,14.76,14,5.39,14,16.85a15.73,15.73,0,0,1-7,13.42q-6.09,4.47-15.49,4.45-10.74,0-17.09-5.66A15,15,0,0,1,0,114.08q0-12.36,13.45-16.9Q2.35,92.59,2.37,82.48,2.37,74,9.28,69.6a23.88,23.88,0,0,1,13.25-3.48q9.21,0,14.76,4.32A13.85,13.85,0,0,1,42.65,82Zm-4.78,31.6a11.61,11.61,0,0,0-6.25-10.75q-3.5-2.07-10.56-3.51-14,3.57-14,14.22a10.85,10.85,0,0,0,4.65,9.23q4.11,3.14,10.74,3.14,7.61,0,11.82-3.83A11.06,11.06,0,0,0,37.87,113.59ZM8.9,82.13a10.79,10.79,0,0,0,5.63,9.94,27.08,27.08,0,0,0,9,2.88Q36,91.11,36,82.16a9.61,9.61,0,0,0-4.56-8.42,16.47,16.47,0,0,0-8.95-2.34q-6.18,0-9.94,2.95A9.35,9.35,0,0,0,8.9,82.13Z"/><path class="cls-2" d="M76.16,131.54q-10.56,0-16.37-9.06Q54.26,114,54.27,98.75q0-17.55,7.19-26a18.46,18.46,0,0,1,14.78-6.6A18.56,18.56,0,0,1,92.61,75q5.55,8.43,5.53,23.82,0,17.37-7.11,25.86A18.38,18.38,0,0,1,76.16,131.54Zm0-5.64q15.12,0,15.16-27.11,0-26.94-15.1-27T61.07,98.76Q61,125.88,76.17,125.9Z"/><path class="cls-2" d="M136.83,81.39q0,7.69-5.12,11.81a14.94,14.94,0,0,1-9.85,3.3,14.6,14.6,0,0,1-10.92-4.31Q107,88.07,107,81.35q0-7.69,5.12-11.81a16,16,0,0,1,20.67,1C135.5,73.3,136.83,76.91,136.83,81.39Zm-24.08,0q0,5.46,3,8.15a9.08,9.08,0,0,0,6.09,2.07,8.85,8.85,0,0,0,6.8-2.68c1.68-1.79,2.52-4.29,2.52-7.52,0-3.64-1-6.35-3.12-8.15a9.21,9.21,0,0,0-6.18-2.06,8.59,8.59,0,0,0-6.72,2.67Q112.76,76.52,112.75,81.36ZM159.5,67.63l-32,62.63h-6.62l32-62.63Zm14.35,48.9q0,7.69-5.12,11.81a15,15,0,0,1-9.85,3.3A14.64,14.64,0,0,1,148,127.33a14.82,14.82,0,0,1-4-10.84q0-7.69,5.12-11.81a15,15,0,0,1,9.85-3.3,14.61,14.61,0,0,1,10.91,4.31C172.52,108.44,173.85,112.05,173.85,116.53Zm-24.08,0q0,5.46,3,8.15a9.07,9.07,0,0,0,6.09,2.06,8.81,8.81,0,0,0,6.8-2.67q2.52-2.69,2.52-7.52,0-5.46-3.12-8.15a9.26,9.26,0,0,0-6.18-2.07,8.6,8.6,0,0,0-6.72,2.68Q149.78,111.67,149.77,116.5Z"/></g></g></svg>