<svg xmlns="http://www.w3.org/2000/svg" viewBox="0 0 122.09 122.09"><defs><style>.cls-1,.cls-3{fill:none;stroke-linecap:round;}.cls-1{stroke:#00bceb;stroke-linejoin:round;stroke-width:3.64px;}.cls-2{fill:#fff;}.cls-3{stroke:#fbab2c;stroke-miterlimit:10;stroke-width:7.29px;}</style></defs><g id="Layer_2" data-name="Layer 2"><g id="Layer_1-2" data-name="Layer 1"><circle class="cls-1" cx="61.05" cy="61.05" r="57.4"/><path class="cls-2" d="M41.45,56.23q0,4.7-5.53,7,6.63,2.53,6.63,7.94a7.4,7.4,0,0,1-3.3,6.33A12,12,0,0,1,32,79.58a11.65,11.65,0,0,1-8.06-2.66,7.08,7.08,0,0,1-2.54-5.53q0-5.82,6.34-8-5.24-2.14-5.24-6.92a6.74,6.74,0,0,1,3.25-6.08A11.21,11.21,0,0,1,32,48.76a11.1,11.1,0,0,1,7,2A6.53,6.53,0,0,1,41.45,56.23ZM39.21,71.14a5.49,5.49,0,0,0-3-5.07,16.7,16.7,0,0,0-5-1.64q-6.59,1.68-6.58,6.71a5.11,5.11,0,0,0,2.19,4.35A8.2,8.2,0,0,0,32,77a8,8,0,0,0,5.57-1.81A5.21,5.21,0,0,0,39.21,71.14ZM25.53,56.32A5.12,5.12,0,0,0,28.19,61a12.9,12.9,0,0,0,4.23,1.35c3.93-1.21,5.91-3.23,5.91-6a4.52,4.52,0,0,0-2.16-4A7.73,7.73,0,0,0,32,51.25a7.4,7.4,0,0,0-4.69,1.4A4.41,4.41,0,0,0,25.53,56.32Z"/><path class="cls-2" d="M57.28,79.58a8.67,8.67,0,0,1-7.72-4.26c-1.75-2.68-2.62-6.4-2.62-11.19q0-8.28,3.38-12.24A9.29,9.29,0,0,1,65,52.9q2.61,4,2.62,11.23,0,8.19-3.34,12.2A8.68,8.68,0,0,1,57.28,79.58Zm0-2.66q7.14,0,7.14-12.79T57.28,51.42q-7.12,0-7.13,12.71T57.28,76.92Z"/><path class="cls-2" d="M85.86,55.9a6.74,6.74,0,0,1-2.4,5.57A7.1,7.1,0,0,1,78.81,63a6.9,6.9,0,0,1-5.15-2,7.09,7.09,0,0,1-1.85-5.11,6.78,6.78,0,0,1,2.4-5.58A7,7,0,0,1,85.86,55.9Zm-11.35,0a4.88,4.88,0,0,0,1.43,3.84,4.26,4.26,0,0,0,2.87,1A4.17,4.17,0,0,0,82,59.44,5,5,0,0,0,83.2,55.9a4.78,4.78,0,0,0-1.47-3.84,4.33,4.33,0,0,0-2.92-1,4,4,0,0,0-3.16,1.27A5.13,5.13,0,0,0,74.51,55.9Zm22-6.5L81.47,79H78.35L93.42,49.4Zm6.79,23.05a6.74,6.74,0,0,1-2.4,5.57,7.1,7.1,0,0,1-4.65,1.56,6.9,6.9,0,0,1-5.15-2,7,7,0,0,1-1.9-5.11,6.75,6.75,0,0,1,2.41-5.58,7.07,7.07,0,0,1,4.64-1.56,6.89,6.89,0,0,1,5.15,2A7,7,0,0,1,103.34,72.45ZM92,72.45a4.89,4.89,0,0,0,1.43,3.84,4.26,4.26,0,0,0,2.87,1A4.17,4.17,0,0,0,99.5,76a5,5,0,0,0,1.18-3.54,4.78,4.78,0,0,0-1.47-3.84,4.35,4.35,0,0,0-2.92-1,4,4,0,0,0-3.16,1.27A5.13,5.13,0,0,0,92,72.45Z"/><path class="cls-3" d="M114.16,39.27A57.47,57.47,0,1,1,66.65,3.92"/></g></g></svg>