<svg xmlns="http://www.w3.org/2000/svg" viewBox="0 0 312.12 349.51"><defs><style>.cls-1{fill:#e6e6e6;}.cls-2{fill:#00bceb;}</style></defs><g id="Layer_2" data-name="Layer 2"><g id="Layer_1-2" data-name="Layer 1"><path class="cls-1" d="M305.39,156.66a8.6,8.6,0,0,0,.8-3.54C306.19,68.7,237.51,0,153.08,0S0,68.7,0,153.12a9.24,9.24,0,0,0,1.26,3.54Zm-20.34-13.89H233.6a209.53,209.53,0,0,0-8.19-49.05A194.12,194.12,0,0,0,261,76.56,131.68,131.68,0,0,1,285.05,142.77ZM247.7,60.56a169.93,169.93,0,0,1-29.16,13.73,164.14,164.14,0,0,0-30.76-48.9A132.31,132.31,0,0,1,247.7,60.56ZM163.41,30.39c14.73,12.69,26.81,29.88,35.36,49.89a193.64,193.64,0,0,1-35.36,5.14Zm0,75.68a215.12,215.12,0,0,0,42.35-6.35A190,190,0,0,1,213,142.77H163.41Zm-20.64,36.7H93.17a191.16,191.16,0,0,1,7.23-43,217.09,217.09,0,0,0,42.37,6.32Zm0-112.38v55a193.53,193.53,0,0,1-35.42-5.14C116,60.27,128,43.08,142.77,30.39Zm-24.37-5a164.89,164.89,0,0,0-30.82,48.9A168.55,168.55,0,0,1,58.44,60.56,132.34,132.34,0,0,1,118.4,25.39ZM45.17,76.56A188.94,188.94,0,0,0,80.74,93.72a207,207,0,0,0-8.18,49.05H21.11A131.14,131.14,0,0,1,45.17,76.56Z"/><rect class="cls-1" x="0.22" y="180.04" width="53.43" height="53.43" rx="12"/><rect class="cls-2" x="89.77" y="185.02" width="33.17" height="33.17" rx="11.26"/><rect class="cls-1" x="179.92" y="183.36" width="43.36" height="43.36" rx="12"/><rect class="cls-2" x="258.69" y="180.04" width="53.43" height="53.43" rx="12"/><rect class="cls-1" x="39.55" y="253.21" width="42.6" height="42.6" rx="12"/><rect class="cls-2" x="90.35" y="313.89" width="35.62" height="35.62" rx="12"/><rect class="cls-2" x="126.39" y="240.66" width="42.6" height="42.6" rx="12"/><rect class="cls-1" x="215.78" y="255.59" width="42.6" height="42.6" rx="12"/><rect class="cls-1" x="185.66" y="318.75" width="28.77" height="28.77" rx="9.76"/></g></g></svg>