<svg xmlns="http://www.w3.org/2000/svg" viewBox="0 0 300.53 300.54"><defs><style>.cls-1{fill:#00bceb;}</style></defs><g id="Layer_2" data-name="Layer 2"><g id="Layer_1-2" data-name="Layer 1"><path class="cls-1" d="M153,15.82c4.21-6,8.05-11,11.31-15.14C159.68.25,155,0,150.27,0A149.79,149.79,0,0,0,88.38,13.31a299.24,299.24,0,0,1,46.87,8.53A16.79,16.79,0,0,1,153,15.82ZM58.26,166c10.95-18.61,25.16-37.49,43.52-53.64a16.68,16.68,0,0,1,12.36-20.08c.37-.08.75-.16,1.12-.22a257.36,257.36,0,0,1,20.8-48.88,17,17,0,0,1-4.25-10.62,290.82,290.82,0,0,0-61.72-9.4,150.64,150.64,0,0,0-60,72.91,291.61,291.61,0,0,0,39.82,70.4A16.66,16.66,0,0,1,58.26,166ZM165.43,31.88A214.38,214.38,0,0,1,208.9,55.29c5.18-3.49,11.65-3.13,17.85-.68a11.18,11.18,0,0,1,6.33,6.57,299.57,299.57,0,0,1,37.54-.89A150.21,150.21,0,0,0,177.48,2.55c-3.66,4.4-9,11.17-15,19.91A16.79,16.79,0,0,1,165.43,31.88Zm-97.27,140a16.8,16.8,0,0,1,2.18,17.6,180.83,180.83,0,0,0,38,28.87c3.45,1.93,7,3.67,10.46,5.33a17,17,0,0,1,1.68-1.71c-8.27-21.74-14.16-46.37-14.16-72.67a185.67,185.67,0,0,1,2.06-27.16l-.44-.33C91.37,137,78.3,154.53,68.16,171.92ZM161.77,42.51a16.78,16.78,0,0,1-15.54,6.21,252.86,252.86,0,0,0-19.47,45.14c24.57-15.11,51.07-23.64,75.18-28.34.09-.41.15-.82.27-1.22A201.42,201.42,0,0,0,161.77,42.51ZM40.45,174.06c.11-.19.26-.34.37-.52A292.58,292.58,0,0,1,4.68,112.92,150.51,150.51,0,0,0,28.27,238a302.9,302.9,0,0,1,15.32-43.2A16.84,16.84,0,0,1,40.45,174.06ZM234.84,72.3a16.13,16.13,0,0,1-1.25,3.88c36.49,36.94,53.13,85.29,60.57,117.47A150.42,150.42,0,0,0,278.45,71.88,280.93,280.93,0,0,0,234.84,72.3ZM144.72,245.2q-.33.42-.69.81a294.56,294.56,0,0,0,34.74,51.76,150,150,0,0,0,84-47.9C240.47,253.7,193.09,258.8,144.72,245.2ZM209.89,83.82a16.69,16.69,0,0,1-6.66-7.09C180.8,81.19,156.37,89,133.88,102.61a16.75,16.75,0,0,1-9.58,21.67,16.48,16.48,0,0,1-4.7,1.08,172.19,172.19,0,0,0-1.8,24c0,24.47,5.6,47.67,13.44,68.29a16.66,16.66,0,0,1,17.3,16q0,.51,0,1c62,17,123.58,2.08,124.32,1.9l.11.38a150.9,150.9,0,0,0,13.45-23.1c-4.68-27.48-19.19-87.09-60.62-129.54A16.81,16.81,0,0,1,209.89,83.82ZM123.32,249.1A16.77,16.77,0,0,1,115,234.26c-4.17-1.93-8.3-4-12.39-6.32A193.45,193.45,0,0,1,62.5,197.63a16.82,16.82,0,0,1-8.26,1.64,294.83,294.83,0,0,0-16.93,50,149.89,149.89,0,0,0,113,51.25c5.18,0,10.32-.27,15.38-.77a300.64,300.64,0,0,1-32-48.53A16.67,16.67,0,0,1,123.32,249.1Z"/></g></g></svg>