<svg xmlns="http://www.w3.org/2000/svg" viewBox="0 0 288.06 121.03"><defs><style>.cls-1{fill:#00bce9;}</style></defs><g id="Layer_2" data-name="Layer 2"><g id="Layer_1-2" data-name="Layer 1"><path class="cls-1" d="M14.9,100.59H9.12v15.5H5.7v-15.5H0V97.84H14.9Z"/><path class="cls-1" d="M18,97.84h3.19v6.42a4.78,4.78,0,0,1,3.8-1.73c3,0,4.77,1.78,4.77,5v8.55H26.54v-8.46c0-1.85-.89-2.66-2.43-2.66a2.9,2.9,0,0,0-2.95,3.14v8H18Z"/><path class="cls-1" d="M36.26,108.13h6.5c-.14-2.33-1.38-3.38-3.23-3.38S36.56,105.79,36.26,108.13Zm9.62,4.15c-.62,2.42-2.65,4.19-6.21,4.19-3.93,0-6.71-2.46-6.71-7s2.69-7,6.58-7S46,104.9,46,110.25H36.21c.24,2.67,1.65,3.81,3.6,3.81a2.65,2.65,0,0,0,2.73-1.78Z"/><path class="cls-1" d="M64,105c-2,0-3.52,1.43-3.52,4.33,0,3.19,1.43,4.64,3.46,4.64s3.44-1.45,3.44-4.61S66,105,64,105Zm-6.59,11.07V97.84h3.19v6.61a5.29,5.29,0,0,1,4.2-1.92c3.5,0,5.84,2.32,5.84,6.69,0,4.69-2.57,7.25-6.11,7.25a5,5,0,0,1-4.07-1.94l-.5,1.56Z"/><path class="cls-1" d="M74,116.09V102.91h2.65l.38,2a3.65,3.65,0,0,1,3.4-2.36,6,6,0,0,1,1.47.18v3.05a5.58,5.58,0,0,0-1.62-.24c-1.63,0-3.08,1.4-3.08,4.53v6Z"/><path class="cls-1" d="M84.86,116.09V102.91h3.19v13.18ZM84.7,101V97.84h3.5V101Z"/><path class="cls-1" d="M98.11,114c2.12,0,3.47-1.53,3.47-4.4,0-3.28-1.55-4.57-3.47-4.57-2.08,0-3.44,1.49-3.44,4.6S96.09,114,98.11,114Zm4,2.1-.55-1.64a5.15,5.15,0,0,1-4.21,2c-3.43,0-5.93-2.49-5.93-6.87,0-4.58,2.49-7.07,6-7.07a4.93,4.93,0,0,1,4,1.84V97.84h3.19v18.25Z"/><path class="cls-1" d="M114.7,113.23c2.19,0,3.47-1.43,3.47-4,0-2.85-1.38-4.25-3.47-4.25s-3.44,1.38-3.44,4.22C111.26,111.89,112.76,113.23,114.7,113.23Zm-2.9,3.71c.35,1.18,1.24,1.75,3,1.75,2.07,0,3.15-1,3.15-3v-1.43a5.55,5.55,0,0,1-4,1.48c-3.22,0-5.93-2.32-5.93-6.49s2.48-6.69,6-6.69a5,5,0,0,1,4,1.87l.53-1.49h2.5V115.6c0,3.23-2.32,5.43-6.34,5.43-3.85,0-5.88-1.58-6.29-4.09Z"/><path class="cls-1" d="M127.77,108.13h6.5c-.14-2.33-1.38-3.38-3.23-3.38S128.07,105.79,127.77,108.13Zm9.62,4.15c-.62,2.42-2.65,4.19-6.21,4.19-3.93,0-6.71-2.46-6.71-7s2.69-7,6.58-7,6.49,2.37,6.49,7.72h-9.82c.24,2.67,1.64,3.81,3.6,3.81a2.65,2.65,0,0,0,2.73-1.78Z"/><path class="cls-1" d="M155.66,116.17a8,8,0,0,1-2.11.3,3.53,3.53,0,0,1-3.9-3.85v-7.3h-2v-2.41h2l.2-3.17h3v3.17h2.78v2.41h-2.78v7.39a1.19,1.19,0,0,0,1.34,1.29,6.62,6.62,0,0,0,1.48-.21Z"/><path class="cls-1" d="M164.52,114.15c2.13,0,3.41-1.43,3.41-4.67s-1.36-4.63-3.44-4.63-3.43,1.4-3.43,4.63S162.45,114.15,164.52,114.15Zm0-11.62c4,0,6.73,2.31,6.73,7s-2.66,7-6.74,7-6.73-2.42-6.73-7S160.49,102.53,164.49,102.53Z"/><path class="cls-1" d="M189.21,105c-2,0-3.52,1.43-3.52,4.33,0,3.19,1.43,4.64,3.46,4.64s3.45-1.45,3.45-4.61S191.19,105,189.21,105Zm-4.09-2.11.57,1.6a5.45,5.45,0,0,1,4.32-2c3.5,0,5.84,2.45,5.84,6.82,0,4.55-2.61,7.12-6.11,7.12a4.88,4.88,0,0,1-3.92-1.8v6h-3.2V102.91Z"/><path class="cls-1" d="M205.35,114.15c2.13,0,3.41-1.43,3.41-4.67s-1.36-4.63-3.44-4.63-3.43,1.4-3.43,4.63S203.28,114.15,205.35,114.15Zm0-11.62c4,0,6.73,2.31,6.73,7s-2.66,7-6.74,7-6.73-2.42-6.73-7S201.32,102.53,205.32,102.53Z"/><path class="cls-1" d="M219.65,110.49c-2.81-.65-4.57-1.66-4.57-4s1.88-3.93,5.48-3.93c3.17,0,5.28,1.49,5.73,3.94h-3.23c-.23-1-1.09-1.63-2.56-1.63s-2.21.54-2.21,1.34.52,1.23,2.9,1.79c2.74.65,5.17,1.39,5.17,4.21,0,2.51-2,4.29-5.84,4.29-3.45,0-5.66-1.64-6-4.13h3.23c.23,1.21,1.22,1.83,2.76,1.83,1.78,0,2.61-.68,2.61-1.64C223.13,111.3,222,111,219.65,110.49Z"/><path class="cls-1" d="M234.24,110.49c-2.81-.65-4.56-1.66-4.56-4s1.88-3.93,5.48-3.93c3.17,0,5.28,1.49,5.73,3.94h-3.24c-.22-1-1.09-1.63-2.56-1.63s-2.2.54-2.2,1.34.52,1.23,2.9,1.79c2.74.65,5.17,1.39,5.17,4.21,0,2.51-2,4.29-5.84,4.29-3.45,0-5.67-1.64-6-4.13h3.24c.23,1.21,1.21,1.83,2.76,1.83,1.77,0,2.61-.68,2.61-1.64C237.73,111.3,236.63,111,234.24,110.49Z"/><path class="cls-1" d="M244.79,116.09V102.91H248v13.18ZM244.63,101V97.84h3.5V101Z"/><path class="cls-1" d="M259,105c-2,0-3.52,1.43-3.52,4.33,0,3.19,1.43,4.64,3.46,4.64s3.44-1.45,3.44-4.61S261,105,259,105Zm-6.59,11.07V97.84h3.19v6.61a5.29,5.29,0,0,1,4.2-1.92c3.5,0,5.84,2.32,5.84,6.69,0,4.69-2.57,7.25-6.11,7.25a5,5,0,0,1-4.07-1.94l-.5,1.56Z"/><path class="cls-1" d="M271.93,116.09h-3.2V97.84h3.2Z"/><path class="cls-1" d="M278.29,108.13h6.5c-.14-2.33-1.38-3.38-3.23-3.38S278.59,105.79,278.29,108.13Zm9.61,4.15c-.62,2.42-2.64,4.19-6.21,4.19-3.92,0-6.7-2.46-6.7-7s2.69-7,6.58-7,6.49,2.37,6.49,7.72h-9.83c.25,2.67,1.65,3.81,3.6,3.81a2.66,2.66,0,0,0,2.74-1.78Z"/><rect class="cls-1" x="114.02" y="48.85" width="6.06" height="24.24"/><path class="cls-1" d="M150.62,61c0,7.81,6,12.55,12.8,12.55a19.05,19.05,0,0,0,5.52-.86V66.15a10.69,10.69,0,0,1-5.09,1.29,6.47,6.47,0,1,1,0-12.94,10.58,10.58,0,0,1,5.09,1.3V49.29a18.44,18.44,0,0,0-5.52-.86C156,48.43,150.62,53.73,150.62,61Z"/><path class="cls-1" d="M87.37,61c0,7.81,6,12.55,12.78,12.55a19.16,19.16,0,0,0,5.54-.86V66.15a10.69,10.69,0,0,1-5.09,1.29,6.47,6.47,0,1,1,0-12.94,10.58,10.58,0,0,1,5.09,1.3V49.29a18.56,18.56,0,0,0-5.54-.86C92.78,48.43,87.37,53.73,87.37,61Z"/><path class="cls-1" d="M188,48.43A12.55,12.55,0,1,0,200.69,61,12.38,12.38,0,0,0,188,48.43Zm0,18.92A6.38,6.38,0,1,1,194.28,61,6.24,6.24,0,0,1,188,67.35Z"/><path class="cls-1" d="M139,58.45l-1.67-.53c-1-.32-2.77-.84-2.77-2.31,0-1.17,1.31-2,3.74-2a20.61,20.61,0,0,1,4.74.74V49.19a25.3,25.3,0,0,0-5.9-.78c-5.6,0-9,3.05-9,7.58,0,4,2.82,6,6.19,7.09l1.3.43c1.5.47,2.7,1.18,2.7,2.4,0,1.38-1.39,2.27-4.41,2.27a22.93,22.93,0,0,1-5.72-.9v5.58a36.56,36.56,0,0,0,6.54.66c4.64,0,9.95-2,9.95-8.14C144.75,62.43,143,59.71,139,58.45Z"/><path class="cls-1" d="M77.94,19.78a3,3,0,0,0-3,3v6.37a3,3,0,1,0,6,0V22.8A3,3,0,0,0,77.94,19.78Z"/><path class="cls-1" d="M94.46,32.19a3,3,0,0,0,3-3V14.45a3,3,0,1,0-6,0V29.17A3,3,0,0,0,94.46,32.19Z"/><path class="cls-1" d="M111,0a3,3,0,0,0-3,3V35.21a3,3,0,1,0,6,0V3A3,3,0,0,0,111,0Z"/><path class="cls-1" d="M130.52,29.17V14.45a3,3,0,1,0-6,0V29.17a3,3,0,1,0,6,0Z"/><path class="cls-1" d="M144,19.78a3,3,0,0,0-3,3v6.37a3,3,0,1,0,6,0V22.8A3,3,0,0,0,144,19.78Z"/><path class="cls-1" d="M160.57,32.19a3,3,0,0,0,3-3V14.45a3,3,0,1,0-6,0V29.17A3,3,0,0,0,160.57,32.19Z"/><path class="cls-1" d="M180.1,35.21V3a3,3,0,1,0-6,0V35.21a3,3,0,1,0,6,0Z"/><path class="cls-1" d="M193.6,32.19a3,3,0,0,0,3-3V14.45a3,3,0,1,0-6,0V29.17A3,3,0,0,0,193.6,32.19Z"/><path class="cls-1" d="M210.14,19.78a3,3,0,0,0-3,3v6.37a3,3,0,1,0,6,0V22.8A3,3,0,0,0,210.14,19.78Z"/></g></g></svg>