<svg xmlns="http://www.w3.org/2000/svg" viewBox="0 0 454.36 349.35"><defs><style>.cls-1{fill:#0d274d;}.cls-2{fill:#fff;}.cls-3{fill:#e8eaf0;}.cls-4{fill:#00bceb;}.cls-5{fill:#1e4471;}.cls-6{fill:#74bf4b;}.cls-7{fill:#fbab2c;}</style></defs><g id="Layer_2" data-name="Layer 2"><g id="Layer_1-2" data-name="Layer 1"><path class="cls-1" d="M3,25.78A21.4,21.4,0,0,1,24.24,4.33L381,3a21.43,21.43,0,0,1,21.44,21.28L403.22,224,3.73,225.52Z"/><path class="cls-2" d="M381.1,5.93a18.44,18.44,0,0,1,18.4,18.33L400.25,221,6.68,222.55,5.93,25.77A18.42,18.42,0,0,1,24.26,7.29L381,5.93h.07m0-5.93H381L24.23,1.37A24.32,24.32,0,0,0,0,25.79L.78,228.5l405.42-1.56-.78-202.71A24.32,24.32,0,0,0,381.1,0Z"/><path class="cls-2" d="M262.94,328,243.6,276.37H162.51L143,328.48a7.16,7.16,0,0,1-6.71,4.65H121.09a7.23,7.23,0,0,0-7.23,7.23v1.76a7.23,7.23,0,0,0,7.23,7.23H285a7.23,7.23,0,0,0,7.23-7.23v-1.76a7.23,7.23,0,0,0-7.23-7.23H270.4A8,8,0,0,1,262.94,328Z"/><path class="cls-2" d="M.72,252.44a24,24,0,0,0,24.33,23.93H381.44a24.32,24.32,0,0,0,24.32-24.32l-.4-26.33L.72,228.11Z"/><path class="cls-3" d="M249.68,292.59l-6.08-16.22H162.51l-6.08,16.22Z"/><path class="cls-4" d="M249.32,157.31a11,11,0,0,1-11,11H43.41a11,11,0,0,1,0-22H238.29a11,11,0,0,1,11,11"/><path class="cls-5" d="M185.32,192.87c0,6.07-3.49,11-7.77,11H40.17c-4.27,0-7.74-4.91-7.74-11s3.47-11,7.74-11H177.55c4.28,0,7.75,4.91,7.77,11"/><path class="cls-6" d="M156.88,31.83a11,11,0,0,1,11-11H362.78a11,11,0,0,1,0,22H167.9a11,11,0,0,1-11-11"/><path class="cls-7" d="M220.88,67.39c0-6.07,3.49-11,7.77-11H366c4.28,0,7.74,4.91,7.74,11s-3.46,11-7.74,11H228.65c-4.28,0-7.76-4.91-7.77-11"/><path class="cls-4" d="M454.36,259.65v.09a15.8,15.8,0,0,1-15.8,15.81H419a51.48,51.48,0,0,1-6.37,13.1l11.09,11.09a14.23,14.23,0,0,1,0,20.13l-.06.06a14.22,14.22,0,0,1-20.12,0L390.63,307a51,51,0,0,1-4.88,1.85v19.53a15.8,15.8,0,0,1-15.8,15.8h-.1a15.81,15.81,0,0,1-15.8-15.8V308.8q-2.44-.8-4.78-1.82L336.36,319.9a14.25,14.25,0,0,1-20.13,0l-.06-.06a14.23,14.23,0,0,1,0-20.13l11.06-11.06a51.48,51.48,0,0,1-6.37-13.1H301.34a15.81,15.81,0,0,1-15.81-15.81v-.09a15.8,15.8,0,0,1,15.81-15.8H320.9a48,48,0,0,1,1.81-4.78l-6.51-6.51a14.25,14.25,0,0,1,0-20.13l.06-.06a14.23,14.23,0,0,1,20.13,0l4.66,4.66a51.08,51.08,0,0,1,13-6.34V191.13a15.8,15.8,0,0,1,15.8-15.8h.1a15.8,15.8,0,0,1,15.8,15.8v19.55a51.52,51.52,0,0,1,13.08,6.37l4.71-4.71a14.23,14.23,0,0,1,20.13,0l.06.06a14.22,14.22,0,0,1,0,20.12l-6.57,6.57a48.6,48.6,0,0,1,1.81,4.76h19.59A15.8,15.8,0,0,1,454.36,259.65Zm-111.29.09A26.88,26.88,0,1,0,370,232.87,26.87,26.87,0,0,0,343.07,259.74Z"/></g></g></svg>