<svg xmlns="http://www.w3.org/2000/svg" viewBox="0 0 335.85 372.62"><defs><style>.cls-1{fill:#6ebe4a;}.cls-2{fill:#fbab18;}.cls-3{fill:#00bceb;}.cls-4{fill:#fff;}</style></defs><g id="Layer_2" data-name="Layer 2"><g id="Layer_1-2" data-name="Layer 1"><path class="cls-1" d="M167.46,0a16.79,16.79,0,1,1-16.79,16.79A16.8,16.8,0,0,1,167.46,0Zm0,56.05a5.89,5.89,0,0,1-5.89-5.89,6,6,0,0,1,5.89-6h0a5.89,5.89,0,0,1,6,5.81V50h0a5.9,5.9,0,0,1-5.74,6Zm0,20.4a5.89,5.89,0,0,1-5.89-5.89v-.08h0a6,6,0,0,1,11.86,0h0A6,6,0,0,1,167.46,76.45Zm0,19.52a6,6,0,1,1,6-6h0a6,6,0,0,1-5.89,6Z"/><circle class="cls-2" cx="16.79" cy="110.89" r="16.79"/><path class="cls-2" d="M45.66,133.42a5.64,5.64,0,0,1-3-.81,5.94,5.94,0,1,1,5.9-10.31h0a5.89,5.89,0,0,1-2.95,11Z"/><path class="cls-2" d="M63.12,143.44a5.64,5.64,0,0,1-3-.81h0a6,6,0,0,1,6-10.31h0a5.89,5.89,0,0,1-2.94,11Z"/><path class="cls-2" d="M80.2,153.38a5.72,5.72,0,0,1-2.94-.74,6,6,0,1,1,5.11-10.78,7.14,7.14,0,0,1,.71.4h0a5.89,5.89,0,0,1-3,11.05Z"/><path class="cls-3" d="M25.54,260.54A16.79,16.79,0,1,1,8.75,277.33,16.79,16.79,0,0,1,25.54,260.54Zm28.8,6.11a5.89,5.89,0,0,1-3-11h0a5.93,5.93,0,0,1,6,10.24h0A6.4,6.4,0,0,1,54.34,266.65Zm17.53-9.94a5.89,5.89,0,0,1-3-11h0A6,6,0,0,1,77,247.8a5.81,5.81,0,0,1-2,8l-.18.11h0A6.29,6.29,0,0,1,71.87,256.71Zm17-10a5.88,5.88,0,0,1-5.15-2.94,6,6,0,0,1,2.13-8.1h0a6,6,0,1,1,6.89,9.74,6.15,6.15,0,0,1-1,.57A6.36,6.36,0,0,1,88.88,246.69Z"/><path class="cls-1" d="M167.46,339a16.79,16.79,0,1,1-16.79,16.79A16.8,16.8,0,0,1,167.46,339Zm0-10.82a5.89,5.89,0,0,1-5.89-5.89h0A6,6,0,1,1,173.43,321a5.83,5.83,0,0,1,0,1.32h0a5.89,5.89,0,0,1-5.89,5.89Zm0-22.09a5.89,5.89,0,0,1-5.89-5.89v-.08h0a6,6,0,0,1,11.86-1.32,5.83,5.83,0,0,1,0,1.32h0a6,6,0,0,1-5.51,6.4h-.46Zm0-22.1a5.89,5.89,0,0,1-5.89-5.89v-.07h0a6,6,0,0,1,11.86,0h0a6,6,0,0,1-5.27,6.59,5.37,5.37,0,0,1-.7,0Z"/><path class="cls-2" d="M314.86,253.94a16.8,16.8,0,1,1-16.8,16.79A16.79,16.79,0,0,1,314.86,253.94Zm-28.8,6.19a6.22,6.22,0,0,1-2.95-.81h0a5.75,5.75,0,1,1,3,.88Zm-17.24-10a5.81,5.81,0,0,1-2.94-.73h0a5.92,5.92,0,1,1,6-10.24h0a6,6,0,0,1,2.14,8.1A5.89,5.89,0,0,1,268.82,250.11Zm-17.38-9.94a5.91,5.91,0,0,1-2.87-.81h0a6,6,0,0,1,6-10.31,6.11,6.11,0,0,1,2.21,8.17A6,6,0,0,1,251.44,240.17Z"/><circle class="cls-3" cx="319.05" cy="110.89" r="16.79"/><path class="cls-3" d="M290.18,133.42a5.89,5.89,0,0,1-2.94-11,6,6,0,0,1,8.1,2.14,5.89,5.89,0,0,1-2,8.08l0,0h0A6,6,0,0,1,290.18,133.42Z"/><path class="cls-3" d="M272.88,143.44a5.89,5.89,0,0,1-5.16-2.95,6,6,0,0,1,2.14-8.1h0a6,6,0,0,1,6,10.31h0A5.25,5.25,0,0,1,272.88,143.44Z"/><path class="cls-3" d="M255.64,153.38a5.89,5.89,0,0,1-3-11,6,6,0,0,1,8.17,2.12v0a5.9,5.9,0,0,1-2.08,8.07l-.06,0h0A6.26,6.26,0,0,1,255.64,153.38Z"/><path class="cls-4" d="M122.14,178.07l-3.45-3.24,3.43,3.27,0,0-3.45-3.24,3.43,3.27,0,0a63,63,0,0,1,13.14-9.68,68.87,68.87,0,0,1,14.11-6,63.88,63.88,0,0,1,18.17-2.67,62.79,62.79,0,0,1,18.74,2.91,71.54,71.54,0,0,1,19.87,9.93,64.4,64.4,0,0,1,5.29,4.16c.58.52,1,.92,1.28,1.18l.28.27.05,0,2.07-2-2.09,2,0,0,2.07-2-2.09,2A8.06,8.06,0,1,0,224.68,167,77.94,77.94,0,0,0,209,155.13a87,87,0,0,0-17.84-7.94,78.68,78.68,0,0,0-47.31,0,86.18,86.18,0,0,0-24.36,12.19A66.06,66.06,0,0,0,110.4,167a8.05,8.05,0,0,0,11.74,11Z"/><path class="cls-4" d="M144.52,201.76l-2.79-2.94,2.75,3,0,0-2.79-2.94,2.75,3,.47-.4a38.82,38.82,0,0,1,8-5.06,35.46,35.46,0,0,1,15.21-3.55,31.89,31.89,0,0,1,9.34,1.39,34.13,34.13,0,0,1,9.7,4.78,28.8,28.8,0,0,1,2.49,2c.26.23.45.41.55.51l.08.08h0l3-2.92-3,2.88.05,0,3-2.92-3,2.88A8.06,8.06,0,0,0,202,190.38a43.08,43.08,0,0,0-9.28-7,50,50,0,0,0-10.49-4.58,48,48,0,0,0-14.05-2.11,50.11,50.11,0,0,0-14.2,2.08,56.31,56.31,0,0,0-14.8,6.9,43.4,43.4,0,0,0-5.77,4.44,8.05,8.05,0,1,0,11.09,11.68Z"/><circle class="cls-4" cx="167.57" cy="221.07" r="9.81" transform="translate(-86.09 333.37) rotate(-76.72)"/><polyline class="cls-4" points="181.5 180.76 181.5 180.79 181.74 180.79 181.74 180.76"/></g></g></svg>