<svg xmlns="http://www.w3.org/2000/svg" viewBox="0 0 303.03 182.04"><defs><style>.cls-1{fill:#fbab2c;}.cls-2{fill:#005073;}.cls-3{fill:#00bceb;}.cls-4{fill:none;stroke:#005073;stroke-linecap:round;stroke-miterlimit:10;stroke-width:1.34px;}.cls-5{fill:#74bf4b;}</style></defs><g id="Layer_2" data-name="Layer 2"><g id="Layer_1-2" data-name="Layer 1"><path class="cls-1" d="M293.84,49.55H210.38a9.19,9.19,0,0,0-9.19,9.19v114.1a9.2,9.2,0,0,0,9.19,9.2h83.46a9.2,9.2,0,0,0,9.19-9.2V58.74A9.19,9.19,0,0,0,293.84,49.55Zm-1.6,112.12H212V70.43h80.26Z"/><circle class="cls-2" cx="252.08" cy="170.48" r="5.04"/><path class="cls-3" d="M53.44,27.14H9.19A9.19,9.19,0,0,0,0,36.33v84.35a9.2,9.2,0,0,0,9.19,9.19H53.44a9.2,9.2,0,0,0,9.2-9.19V36.33A9.19,9.19,0,0,0,53.44,27.14Zm-.25,83.51H9.39V45h43.8Z"/><circle class="cls-2" cx="31.29" cy="119.08" r="3.64"/><line class="cls-4" x1="25.99" y1="36.27" x2="36.59" y2="36.27"/><path class="cls-5" d="M197.23,152.47H12.39a8.37,8.37,0,1,1,0-16.73H197.23Zm0-40.22H66.53v8.43a13,13,0,0,1-.47,3.44H197.23Zm41.65-66.66H250.8V11a11,11,0,0,0-11-11h-197A11,11,0,0,0,31.86,11v12.2h12V12H238.92Z"/></g></g></svg>