<svg xmlns="http://www.w3.org/2000/svg" viewBox="0 0 288.27 289.55"><defs><style>.cls-1{fill:#01bcea;}.cls-2{fill:#75c04a;}.cls-3{fill:#fbab2a;}</style></defs><g id="Layer_2" data-name="Layer 2"><g id="Layer_1-2" data-name="Layer 1"><path class="cls-1" d="M226.12,64.45a9,9,0,0,1-8.76-.86,114.41,114.41,0,0,0-159,29.25A9,9,0,0,1,43.61,82.61,132.15,132.15,0,0,1,227.42,48.88l.3.21a9,9,0,0,1,2.33,12.54l0,0A8.57,8.57,0,0,1,226.12,64.45Z"/><path class="cls-1" d="M235.9,68.84h0L184.49,88.5a8.94,8.94,0,0,1-11.58-5.07l0-.08a9.17,9.17,0,0,1,5.19-11.71L221,55.21l-16.46-43a9,9,0,1,1,16.86-6.41h0L241,57.16A8.7,8.7,0,0,1,240.9,64,9.15,9.15,0,0,1,235.9,68.84Z"/><path class="cls-2" d="M192.78,260.75a9,9,0,0,1,5.57-6.81,114.41,114.41,0,0,0,63.78-148.51,9,9,0,0,1,16.71-6.63A132.12,132.12,0,0,1,205,270.46l-.34.14a9,9,0,0,1-11.72-5l0,0A8.67,8.67,0,0,1,192.78,260.75Z"/><path class="cls-2" d="M183.7,266.46h0l12.14-53.69A8.94,8.94,0,0,1,206.48,206l.08,0a9.17,9.17,0,0,1,6.87,10.81L203.31,261.6l44.9,10.14a9,9,0,1,1-4,17.58h0L190.58,277.2a8.7,8.7,0,0,1-5.63-3.91A9.08,9.08,0,0,1,183.7,266.46Z"/><path class="cls-3" d="M54.48,129.53a9,9,0,0,1,2.73,8.36,114.43,114.43,0,0,0,90.7,133.8,9,9,0,0,1-3.43,17.65A132.15,132.15,0,0,1,39.7,134.6c0-.12,0-.24.07-.36a9,9,0,0,1,10.54-7.17h.06A8.6,8.6,0,0,1,54.48,129.53Z"/><path class="cls-3" d="M54.56,118.81h0L93.24,158a8.94,8.94,0,0,1,0,12.64l-.06.06a9.17,9.17,0,0,1-12.81-.05L48.09,138,15.34,170.3A9,9,0,0,1,2.69,157.44h0l39.12-38.62a8.68,8.68,0,0,1,6.33-2.64A9.05,9.05,0,0,1,54.56,118.81Z"/></g></g></svg>